<svg width="138" height="72" viewBox="0 0 138 72" fill="none" xmlns="http://www.w3.org/2000/svg">
<path d="M0 0C4.21581 0 8.43163 0 12.7752 0C15.3883 3.91966 15.3883 3.91966 15.3616 6.27843C15.3614 6.80854 15.3611 7.33866 15.3608 7.88483C15.3489 8.43122 15.337 8.97762 15.3248 9.54056C15.3213 10.3058 15.3213 10.3058 15.3177 11.0866C15.3056 12.9803 15.2732 14.8739 15.2431 16.7674C15.1952 21.0072 15.1473 25.247 15.098 29.6152C26.2124 29.6152 37.3268 29.6152 48.778 29.6152C48.7091 20.955 48.7091 20.955 48.6211 12.295C48.616 11.2067 48.6115 10.1185 48.6079 9.03019C48.5945 8.18734 48.5945 8.18734 48.5809 7.32746C48.5806 6.5145 48.5806 6.5145 48.5802 5.68513C48.5744 4.983 48.5744 4.983 48.5685 4.26669C48.778 2.90345 48.778 2.90345 50.5201 0C54.9275 0 59.335 0 63.876 0C63.876 23.5702 63.876 47.1405 63.876 71.4249C59.6602 71.4249 55.4443 71.4249 51.1008 71.4249C48.4877 68.1586 48.4877 68.1586 48.5143 65.7398C48.5146 65.1978 48.5149 64.6559 48.5152 64.0975C48.533 63.2546 48.533 63.2546 48.5512 62.3947C48.5535 61.8726 48.5559 61.3504 48.5583 60.8124C48.5704 58.8695 48.6028 56.9268 48.6328 54.9841C48.6807 50.6366 48.7287 46.289 48.778 41.8097C37.6636 41.8097 26.5492 41.8097 15.098 41.8097C15.1897 50.2527 15.1897 50.2527 15.3072 58.6954C15.314 59.7584 15.3199 60.8214 15.3248 61.8844C15.3367 62.4308 15.3486 62.9772 15.3608 63.5401C15.3611 64.0702 15.3614 64.6003 15.3616 65.1465C15.3668 65.603 15.372 66.0595 15.3773 66.5298C15.098 67.9408 15.098 67.9408 12.7752 71.4249C8.55938 71.4249 4.34357 71.4249 0 71.4249C0 47.8547 0 24.2845 0 0Z" fill="black"/>
<path d="M48.7774 41.8094C49.5439 41.8094 50.3104 41.8094 51.1001 41.8094C51.1001 51.3908 51.1001 60.9722 51.1001 70.844C48.7774 68.5212 48.7774 68.5212 48.498 67.2278C48.5032 66.7584 48.5084 66.2891 48.5137 65.8055C48.5139 65.2709 48.514 64.7362 48.5142 64.1854C48.5262 63.6131 48.5382 63.0408 48.5505 62.4512C48.5538 61.8616 48.5571 61.272 48.5605 60.6645C48.5735 58.7828 48.6026 56.9017 48.6322 55.0202C48.6438 53.7439 48.6544 52.4675 48.664 51.1912C48.6896 48.0638 48.7284 44.9366 48.7774 41.8094Z" fill="black"/>
<path d="M12.7754 41.8094C13.5419 41.8094 14.3084 41.8094 15.0982 41.8094C15.1424 45.4777 15.1729 49.1459 15.1938 52.8144C15.2026 54.062 15.2145 55.3095 15.2296 56.5571C15.2507 58.3517 15.2606 60.1461 15.2683 61.9408C15.2773 62.4974 15.2863 63.054 15.2955 63.6275C15.2962 66.4929 15.2773 68.537 13.3561 70.844C13.1645 70.844 12.9728 70.844 12.7754 70.844C12.7754 61.2626 12.7754 51.6812 12.7754 41.8094Z" fill="black"/>
<path d="M12.7754 1.74182C14.5175 2.32251 14.5175 2.32251 15.0982 3.48389C15.1501 4.32611 15.1664 5.17068 15.1641 6.01449C15.164 6.79911 15.164 6.79911 15.1639 7.59957C15.1609 8.16516 15.1579 8.73075 15.1549 9.31348C15.154 9.89185 15.1532 10.4702 15.1524 11.0661C15.1491 12.9181 15.1418 14.77 15.1344 16.622C15.1315 17.8756 15.1289 19.1293 15.1265 20.3829C15.1201 23.4603 15.1104 26.5376 15.0982 29.615C14.3316 29.615 13.5651 29.615 12.7754 29.615C12.7754 20.4168 12.7754 11.2187 12.7754 1.74182Z" fill="black"/>
<path d="M49.3589 2.32251C49.7422 2.32251 50.1255 2.32251 50.5203 2.32251C50.5203 11.1374 50.5203 19.9523 50.5203 29.0343C50.1371 29.0343 49.7538 29.0343 49.3589 29.0343C49.2615 25.3235 49.1686 21.6127 49.0789 17.9018C49.0479 16.6383 49.0157 15.3748 48.9825 14.1114C48.9351 12.2997 48.8915 10.4879 48.8486 8.67608C48.8329 8.10749 48.8172 7.5389 48.801 6.95309C48.7893 6.42997 48.7777 5.90685 48.7656 5.36787C48.754 4.90495 48.7424 4.44202 48.7305 3.96507C48.7783 2.9032 48.7783 2.9032 49.3589 2.32251Z" fill="black"/>
<path d="M78.8203 0.257751C98.0762 0.257751 117.332 0.257751 137.172 0.257751C137.172 3.27058 137.172 6.28342 137.172 9.38755C130.491 9.38755 123.81 9.38755 116.927 9.38755C116.927 12.4004 116.927 15.4132 116.927 18.5173C122.429 18.5173 127.931 18.5173 133.599 18.5173C133.599 19.1723 133.599 19.8273 133.599 20.5021C128.097 20.5021 122.596 20.5021 116.927 20.5021C116.927 21.0261 116.927 21.55 116.927 22.0899C122.429 22.0899 127.931 22.0899 133.599 22.0899C133.599 22.7448 133.599 23.3998 133.599 24.0746C128.097 24.0746 122.596 24.0746 116.927 24.0746C116.927 24.5986 116.927 25.1226 116.927 25.6624C122.429 25.6624 127.931 25.6624 133.599 25.6624C133.599 26.3174 133.599 26.9723 133.599 27.6471C128.097 27.6471 122.596 27.6471 116.927 27.6471C116.927 32.4939 116.927 37.3406 116.927 42.3342C116.272 42.3342 115.617 42.3342 114.943 42.3342C114.812 29.8899 114.681 17.4456 114.546 4.62418C113.236 6.98205 111.926 9.33992 110.576 11.7692C109.689 13.3114 108.799 14.8502 107.897 16.3838C107.426 17.1874 106.955 17.9912 106.484 18.7949C106.246 19.2014 106.007 19.6078 105.762 20.0266C104.986 21.3523 104.213 22.6798 103.442 24.0079C103.187 24.4469 102.932 24.8859 102.669 25.3381C102.175 26.1867 101.683 27.0355 101.19 27.8846C100.969 28.2642 100.748 28.6438 100.521 29.0349C100.325 29.3713 100.13 29.7077 99.9286 30.0543C99.4616 30.8227 99.4616 30.8227 99.0646 31.2197C98.1386 31.2359 97.2121 31.2365 96.286 31.2197C96.1588 30.993 96.0316 30.7663 95.9005 30.5328C93.4309 26.1369 90.9428 21.753 88.3967 17.4009C88.1708 17.0147 87.945 16.6285 87.7123 16.2305C87.4827 15.838 87.2532 15.4454 87.0167 15.041C85.5714 12.5694 84.1285 10.0967 82.6929 7.61956C82.3024 6.94652 81.9105 6.27431 81.5185 5.60211C81.281 5.19189 81.0435 4.78167 80.7988 4.35903C80.5889 3.99768 80.379 3.63633 80.1627 3.26403C79.6142 2.24249 79.6142 2.24249 78.8203 0.257751Z" fill="black"/>
<path d="M81.2031 0.257751C92.2065 0.257751 103.21 0.257751 114.547 0.257751C112.977 3.39716 111.393 6.42868 109.61 9.43717C109.122 10.2661 108.635 11.0951 108.148 11.9243C107.771 12.5648 107.771 12.5648 107.386 13.2183C105.808 15.9141 104.254 18.6245 102.698 21.3334C101.249 23.8513 99.7765 26.353 98.2719 28.838C96.7071 28.3164 96.5648 27.7311 95.7708 26.3059C95.5166 25.8545 95.2623 25.4031 95.0004 24.938C94.7264 24.4435 94.4524 23.9489 94.1784 23.4544C93.7504 22.6918 93.3212 21.93 92.8919 21.1682C92.5997 20.6493 92.3079 20.1301 92.0165 19.6107C90.6383 17.1549 89.2253 14.7203 87.8024 12.2902C87.5765 11.9033 87.3506 11.5164 87.1179 11.1177C86.0671 9.31955 85.0109 7.52492 83.9445 5.73594C83.7569 5.42032 83.5693 5.10471 83.3761 4.77953C83.0294 4.19718 82.6813 3.61572 82.3314 3.03532C81.2031 1.13979 81.2031 1.13979 81.2031 0.257751Z" fill="#898989" fill-opacity="0.2"/>
<path d="M69.6914 0.257568C70.4774 0.257568 71.2633 0.257568 72.0731 0.257568C72.2244 0.520321 72.3756 0.783074 72.5315 1.05379C75.2781 5.82318 78.0291 10.5897 80.8059 15.3416C81.4885 16.5112 82.1709 17.681 82.8531 18.8509C83.3704 19.7378 83.8881 20.6244 84.406 21.5109C85.1066 22.7106 85.8054 23.9113 86.503 25.1127C86.9023 25.7995 87.3034 26.4852 87.7045 27.1709C87.9444 27.5849 88.1844 27.9989 88.4317 28.4254C88.6458 28.7929 88.8598 29.1605 89.0804 29.5392C89.5388 30.4256 89.5388 30.4256 89.5388 31.2195C88.6317 31.3435 88.6317 31.3435 87.5541 31.2195C86.8609 30.4256 86.8609 30.4256 86.1895 29.2348C86.0594 29.0094 85.9292 28.7841 85.795 28.552C85.4921 28.0269 85.1924 27.4999 84.8952 26.9715C84.3228 25.9608 83.7363 24.9593 83.1473 23.9581C81.1365 20.5368 79.1483 17.1023 77.1667 13.6639C77.0307 13.4279 76.8947 13.1919 76.7546 12.9487C76.0929 11.8005 75.4319 10.6518 74.7718 9.50259C74.5341 9.0895 74.2965 8.67641 74.0516 8.25079C73.7367 7.70253 73.7367 7.70253 73.4155 7.1432C72.9907 6.42192 72.5374 5.71742 72.0731 5.02094C71.9421 17.3343 71.8111 29.6476 71.6761 42.334C71.0212 42.334 70.3662 42.334 69.6914 42.334C69.6914 28.4488 69.6914 14.5636 69.6914 0.257568Z" fill="black"/>
<path d="M74.0586 0.257794C75.1006 0.0345113 75.1006 0.0345113 76.4403 0.257794C78.5133 2.62669 79.9184 5.72515 81.4269 8.46965C83.2443 11.7466 85.092 15 87.009 18.2197C88.7776 21.1918 90.5248 24.1747 92.2438 27.1758C92.4511 27.5364 92.6584 27.897 92.8719 28.2686C93.1543 28.7631 93.1543 28.7631 93.4424 29.2675C93.6091 29.5591 93.7758 29.8507 93.9476 30.1511C94.3029 30.8228 94.3029 30.8228 94.3029 31.2197C93.1895 31.3273 93.1895 31.3273 91.9212 31.2197C91.2352 30.509 91.2352 30.509 90.6823 29.4986C90.47 29.122 90.2576 28.7454 90.0388 28.3574C89.8168 27.9429 89.5947 27.5284 89.3659 27.1014C88.8745 26.2216 88.3829 25.3419 87.8913 24.4623C87.6396 24.0045 87.3879 23.5466 87.1286 23.0749C85.9121 20.8763 84.6476 18.7061 83.3869 16.5327C82.8931 15.6758 82.3995 14.8188 81.9061 13.9618C80.149 10.916 78.3748 7.88027 76.5953 4.8475C76.3779 4.47602 76.1604 4.10453 75.9363 3.72178C75.7456 3.39667 75.5548 3.07155 75.3583 2.73659C74.8959 1.92205 74.4683 1.09984 74.0586 0.257794Z" fill="black"/>
<path d="M112.562 9.78448C112.693 9.78448 112.824 9.78448 112.959 9.78448C112.959 20.5259 112.959 31.2673 112.959 42.3342C112.304 42.3342 111.649 42.3342 110.974 42.3342C110.937 38.5005 110.909 34.667 110.892 30.8332C110.884 29.0528 110.872 27.2726 110.854 25.4923C110.837 23.773 110.828 22.0538 110.823 20.3345C110.821 19.6798 110.815 19.0251 110.806 18.3704C110.795 17.4506 110.793 16.5313 110.794 15.6115C110.789 14.8274 110.789 14.8274 110.783 14.0275C111.017 12.2349 111.582 11.2859 112.562 9.78448Z" fill="black"/>
<path d="M73.6602 10.1814C75.5209 12.5073 75.6948 12.9072 75.69 15.7466C75.69 16.0332 75.6901 16.3198 75.6901 16.6152C75.6899 17.5645 75.6868 18.5138 75.6837 19.4632C75.6829 20.1206 75.6824 20.778 75.682 21.4355C75.6804 23.1674 75.6765 24.8993 75.6722 26.6313C75.6681 28.398 75.6663 30.1647 75.6643 31.9313C75.66 35.399 75.6532 38.8666 75.6449 42.3342C74.9899 42.3342 74.335 42.3342 73.6602 42.3342C73.6602 31.7238 73.6602 21.1133 73.6602 10.1814Z" fill="black"/>
<path d="M111.396 0.232971C111.973 0.245252 111.973 0.245252 112.562 0.25778C112.271 0.766273 112.271 0.766273 111.975 1.28504C110.604 3.68288 109.234 6.08139 107.868 8.48204C104.589 14.2404 101.269 19.971 97.8749 25.6624C96.684 25.2655 96.684 25.2655 96.3119 24.6235C96.2726 23.1248 97.1003 22.0761 97.8749 20.8494C98.2431 20.2462 98.6105 19.6425 98.9773 19.0384C99.1809 18.7053 99.3845 18.3721 99.5943 18.0289C100.849 15.9455 102.049 13.8298 103.258 11.7196C104.935 8.8059 106.616 5.89518 108.344 3.01161C108.488 2.77079 108.633 2.52998 108.781 2.28187C110 0.261459 110 0.261459 111.396 0.232971Z" fill="black"/>
<path d="M106.697 0.130432C107.242 0.193466 107.242 0.193466 107.797 0.257773C105.63 4.94915 102.91 9.32844 100.255 13.754C99.7908 14.5303 99.3261 15.3066 98.8615 16.083C97.7406 17.9543 96.6173 19.8242 95.4921 21.693C95.0991 21.562 94.7061 21.431 94.3012 21.296C93.9742 20.5828 93.9742 20.5828 93.9043 19.7082C94.2321 18.8964 94.2321 18.8964 94.7711 18.0196C94.9726 17.6853 95.1742 17.351 95.3819 17.0065C95.6066 16.6455 95.8312 16.2844 96.0627 15.9124C96.5387 15.1338 97.0142 14.3549 97.4892 13.5757C97.7441 13.1595 97.9989 12.7433 98.2614 12.3145C99.113 10.8948 99.9286 9.45854 100.739 8.01531C101.159 7.276 101.58 6.53722 102.002 5.79868C102.276 5.31426 102.547 4.82817 102.816 4.34043C103.194 3.65409 103.584 2.97448 103.975 2.29523C104.196 1.90181 104.417 1.50838 104.644 1.10303C105.416 0.257773 105.416 0.257773 106.697 0.130432Z" fill="black"/>
<path d="M108.592 16.5327C108.723 16.5327 108.854 16.5327 108.989 16.5327C108.989 25.0472 108.989 33.5617 108.989 42.3343C108.334 42.3343 107.679 42.3343 107.004 42.3343C106.967 39.3805 106.939 36.4267 106.922 33.4728C106.914 32.1009 106.902 30.7292 106.884 29.3574C106.864 27.7779 106.856 26.1985 106.849 24.6189C106.841 24.1297 106.833 23.6404 106.824 23.1363C106.824 20.4462 106.971 18.7181 108.592 16.5327Z" fill="black"/>
<path d="M77.6309 16.9296C79.666 19.4735 79.666 19.4735 79.6607 21.8754C79.6606 22.3283 79.6606 22.7812 79.6606 23.2479C79.6585 23.7387 79.6565 24.2295 79.6544 24.7352C79.6538 25.2363 79.6532 25.7374 79.6527 26.2537C79.6508 27.5862 79.6472 28.9188 79.6429 30.2513C79.6388 31.611 79.637 32.9706 79.635 34.3302C79.6306 36.9982 79.6239 39.6663 79.6156 42.3343C78.9606 42.3343 78.3057 42.3343 77.6309 42.3343C77.6309 33.9507 77.6309 25.5672 77.6309 16.9296Z" fill="black"/>
<path d="M116.928 5.81506C123.608 5.81506 130.289 5.81506 137.172 5.81506C137.172 6.47003 137.172 7.12499 137.172 7.7998C130.491 7.7998 123.811 7.7998 116.928 7.7998C116.928 7.14484 116.928 6.48987 116.928 5.81506Z" fill="#EAEBEC"/>
<path d="M116.928 2.24249C123.608 2.24249 130.289 2.24249 137.172 2.24249C137.172 2.76646 137.172 3.29043 137.172 3.83028C130.491 3.83028 123.811 3.83028 116.928 3.83028C116.928 3.30631 116.928 2.78234 116.928 2.24249Z" fill="#FEFEFE"/>
<path d="M70.0693 49.7698C70.0693 49.0753 70.2293 48.4522 70.5493 47.9007C70.8762 47.3492 71.3153 46.9202 71.8669 46.6138C72.4252 46.3006 73.0346 46.144 73.695 46.144C74.4508 46.144 75.1215 46.3313 75.7071 46.7058C76.2994 47.0734 76.7284 47.5977 76.994 48.2786H75.5947C75.4109 47.9041 75.1556 47.625 74.8287 47.4411C74.5019 47.2573 74.124 47.1654 73.695 47.1654C73.2252 47.1654 72.8065 47.2709 72.4388 47.482C72.0711 47.6931 71.7817 47.996 71.5707 48.391C71.3664 48.7859 71.2643 49.2455 71.2643 49.7698C71.2643 50.2941 71.3664 50.7537 71.5707 51.1486C71.7817 51.5435 72.0711 51.8499 72.4388 52.0678C72.8065 52.2788 73.2252 52.3844 73.695 52.3844C74.124 52.3844 74.5019 52.2925 74.8287 52.1086C75.1556 51.9248 75.4109 51.6456 75.5947 51.2711H76.994C76.7284 51.952 76.2994 52.4763 75.7071 52.844C75.1215 53.2117 74.4508 53.3955 73.695 53.3955C73.0278 53.3955 72.4184 53.2423 71.8669 52.9359C71.3153 52.6227 70.8762 52.1903 70.5493 51.6388C70.2293 51.0873 70.0693 50.4643 70.0693 49.7698ZM81.5944 53.4057C80.934 53.4057 80.3246 53.2525 79.7662 52.9461C79.2147 52.6329 78.7755 52.2005 78.4487 51.649C78.1287 51.0907 77.9687 50.4643 77.9687 49.7698C77.9687 49.0753 78.1287 48.4522 78.4487 47.9007C78.7755 47.3492 79.2147 46.9202 79.7662 46.6138C80.3246 46.3006 80.934 46.144 81.5944 46.144C82.2617 46.144 82.8711 46.3006 83.4226 46.6138C83.981 46.9202 84.4201 47.3492 84.7402 47.9007C85.0602 48.4522 85.2202 49.0753 85.2202 49.7698C85.2202 50.4643 85.0602 51.0907 84.7402 51.649C84.4201 52.2005 83.981 52.6329 83.4226 52.9461C82.8711 53.2525 82.2617 53.4057 81.5944 53.4057ZM81.5944 52.3946C82.0643 52.3946 82.483 52.2891 82.8507 52.078C83.2184 51.8601 83.5043 51.5537 83.7086 51.1588C83.9197 50.7571 84.0252 50.2941 84.0252 49.7698C84.0252 49.2455 83.9197 48.7859 83.7086 48.391C83.5043 47.996 83.2184 47.6931 82.8507 47.482C82.483 47.2709 82.0643 47.1654 81.5944 47.1654C81.1246 47.1654 80.7059 47.2709 80.3382 47.482C79.9705 47.6931 79.6811 47.996 79.4701 48.391C79.2658 48.7859 79.1637 49.2455 79.1637 49.7698C79.1637 50.2941 79.2658 50.7571 79.4701 51.1588C79.6811 51.5537 79.9705 51.8601 80.3382 52.078C80.7059 52.2891 81.1246 52.3946 81.5944 52.3946ZM92.1977 53.3342H91.0334L87.5302 48.0335V53.3342H86.3659V46.2257H87.5302L91.0334 51.5163V46.2257H92.1977V53.3342ZM96.0656 53.4057C95.5889 53.4057 95.16 53.324 94.7787 53.1606C94.3974 52.9904 94.0978 52.7521 93.8799 52.4457C93.662 52.1393 93.5531 51.7818 93.5531 51.3733H94.7991C94.8263 51.6797 94.9455 51.9316 95.1566 52.1291C95.3745 52.3265 95.6775 52.4252 96.0656 52.4252C96.4673 52.4252 96.7805 52.3299 97.0052 52.1393C97.2299 51.9418 97.3422 51.6899 97.3422 51.3835C97.3422 51.1452 97.2707 50.9511 97.1278 50.8013C96.9916 50.6515 96.818 50.5358 96.6069 50.4541C96.4026 50.3724 96.1166 50.2838 95.749 50.1885C95.2859 50.066 94.9081 49.9434 94.6153 49.8208C94.3293 49.6915 94.0842 49.494 93.8799 49.2285C93.6756 48.9629 93.5735 48.6088 93.5735 48.1663C93.5735 47.7577 93.6756 47.4003 93.8799 47.0939C94.0842 46.7875 94.3702 46.5526 94.7378 46.3891C95.1055 46.2257 95.5311 46.144 96.0145 46.144C96.7022 46.144 97.2639 46.3177 97.6997 46.6649C98.1423 47.0054 98.3874 47.4752 98.4351 48.0743H97.1482C97.1278 47.8156 97.0052 47.5943 96.7805 47.4105C96.5558 47.2266 96.2596 47.1347 95.8919 47.1347C95.5583 47.1347 95.2859 47.2198 95.0749 47.3901C94.8638 47.5603 94.7583 47.8054 94.7583 48.1254C94.7583 48.3433 94.8229 48.5237 94.9523 48.6667C95.0885 48.8029 95.2587 48.9118 95.463 48.9936C95.6672 49.0753 95.9464 49.1638 96.3005 49.2591C96.7703 49.3885 97.1516 49.5178 97.4444 49.6472C97.744 49.7766 97.9959 49.9774 98.2002 50.2498C98.4112 50.5153 98.5168 50.8728 98.5168 51.3222C98.5168 51.6831 98.418 52.0235 98.2206 52.3435C98.0299 52.6636 97.7474 52.9223 97.3729 53.1197C97.0052 53.3104 96.5694 53.4057 96.0656 53.4057ZM101.045 46.2359V50.7605C101.045 51.2984 101.184 51.7035 101.463 51.9759C101.749 52.2482 102.144 52.3844 102.648 52.3844C103.159 52.3844 103.554 52.2482 103.833 51.9759C104.119 51.7035 104.262 51.2984 104.262 50.7605V46.2359H105.426V50.74C105.426 51.3188 105.3 51.809 105.048 52.2108C104.796 52.6125 104.459 52.9121 104.037 53.1095C103.615 53.307 103.149 53.4057 102.638 53.4057C102.127 53.4057 101.661 53.307 101.239 53.1095C100.823 52.9121 100.493 52.6125 100.248 52.2108C100.003 51.809 99.8804 51.3188 99.8804 50.74V46.2359H101.045ZM108.107 52.3946H110.507V53.3342H106.942V46.2359H108.107V52.3946ZM116.066 46.2359V47.1858H114.177V53.3342H113.012V47.1858H111.113V46.2359H116.066ZM118.41 46.2359V53.3342H117.245V46.2359H118.41ZM125.77 53.3342H124.606L121.103 48.0335V53.3342H119.938V46.2257H121.103L124.606 51.5163V46.2257H125.77V53.3342ZM132.436 48.2786C132.253 47.9246 131.997 47.659 131.67 47.482C131.344 47.2981 130.966 47.2062 130.537 47.2062C130.067 47.2062 129.648 47.3118 129.281 47.5228C128.913 47.7339 128.623 48.0335 128.412 48.4216C128.208 48.8097 128.106 49.2591 128.106 49.7698C128.106 50.2804 128.208 50.7332 128.412 51.1281C128.623 51.5163 128.913 51.8158 129.281 52.0269C129.648 52.238 130.067 52.3435 130.537 52.3435C131.17 52.3435 131.684 52.1665 132.079 51.8124C132.474 51.4584 132.716 50.9783 132.804 50.3724H130.138V49.4429H134.05V50.3519C133.975 50.9034 133.778 51.4107 133.458 51.8737C133.145 52.3367 132.733 52.7078 132.222 52.987C131.718 53.2593 131.156 53.3955 130.537 53.3955C129.869 53.3955 129.26 53.2423 128.709 52.9359C128.157 52.6227 127.718 52.1903 127.391 51.6388C127.071 51.0873 126.911 50.4643 126.911 49.7698C126.911 49.0753 127.071 48.4522 127.391 47.9007C127.718 47.3492 128.157 46.9202 128.709 46.6138C129.267 46.3006 129.876 46.144 130.537 46.144C131.293 46.144 131.963 46.3313 132.549 46.7058C133.141 47.0734 133.57 47.5977 133.836 48.2786H132.436Z" fill="black"/>
<path d="M71.4149 61.8354V63.6957H73.6035V64.5438H71.4149V66.4862H73.8771V67.3342H70.3753V60.9874H73.8771V61.8354H71.4149ZM82.7333 67.3342H81.6937L78.5659 62.6014V67.3342H77.5263V60.9874H78.5659L81.6937 65.711V60.9874H82.7333V67.3342ZM91.0542 62.8203C90.89 62.5042 90.6621 62.2671 90.3702 62.109C90.0784 61.9449 89.741 61.8628 89.358 61.8628C88.9386 61.8628 88.5647 61.957 88.2364 62.1455C87.9081 62.3339 87.6497 62.6014 87.4613 62.948C87.2789 63.2945 87.1877 63.6957 87.1877 64.1517C87.1877 64.6076 87.2789 65.0119 87.4613 65.3645C87.6497 65.711 87.9081 65.9785 88.2364 66.167C88.5647 66.3554 88.9386 66.4497 89.358 66.4497C89.9234 66.4497 90.3824 66.2916 90.735 65.9755C91.0876 65.6594 91.3034 65.2308 91.3825 64.6897H89.0024V63.8599H92.495V64.6715C92.4281 65.1639 92.2518 65.6168 91.9661 66.0302C91.6864 66.4436 91.3186 66.7749 90.8627 67.0242C90.4128 67.2674 89.9113 67.3889 89.358 67.3889C88.7623 67.3889 88.2181 67.2522 87.7257 66.9786C87.2333 66.6989 86.8412 66.3129 86.5494 65.8205C86.2636 65.328 86.1208 64.7718 86.1208 64.1517C86.1208 63.5316 86.2636 62.9753 86.5494 62.4829C86.8412 61.9905 87.2333 61.6075 87.7257 61.3339C88.2242 61.0542 88.7683 60.9144 89.358 60.9144C90.0328 60.9144 90.6317 61.0816 91.1545 61.416C91.6834 61.7442 92.0664 62.2124 92.3035 62.8203H91.0542ZM96.9287 60.9965V67.3342H95.8891V60.9965H96.9287ZM105.869 67.3342H104.83L101.702 62.6014V67.3342H100.662V60.9874H101.702L104.83 65.711V60.9874H105.869V67.3342ZM110.643 61.8354V63.6957H112.832V64.5438H110.643V66.4862H113.105V67.3342H109.603V60.9874H113.105V61.8354H110.643ZM117.794 61.8354V63.6957H119.982V64.5438H117.794V66.4862H120.256V67.3342H116.754V60.9874H120.256V61.8354H117.794ZM127.197 67.3342L125.738 64.7991H124.945V67.3342H123.905V60.9965H126.094C126.58 60.9965 126.991 61.0816 127.325 61.2518C127.665 61.422 127.918 61.65 128.082 61.9357C128.252 62.2215 128.337 62.5406 128.337 62.8932C128.337 63.3066 128.216 63.6836 127.972 64.024C127.735 64.3584 127.368 64.5863 126.869 64.7079L128.438 67.3342H127.197ZM124.945 63.9693H126.094C126.483 63.9693 126.775 63.872 126.969 63.6775C127.17 63.4829 127.27 63.2215 127.27 62.8932C127.27 62.565 127.173 62.3096 126.978 62.1272C126.784 61.9388 126.489 61.8445 126.094 61.8445H124.945V63.9693ZM134.124 67.3981C133.699 67.3981 133.316 67.3251 132.975 67.1792C132.635 67.0272 132.367 66.8144 132.173 66.5409C131.978 66.2673 131.881 65.9481 131.881 65.5834H132.993C133.018 65.8569 133.124 66.0819 133.313 66.2582C133.507 66.4345 133.778 66.5226 134.124 66.5226C134.483 66.5226 134.763 66.4375 134.963 66.2673C135.164 66.091 135.264 65.8661 135.264 65.5925C135.264 65.3797 135.2 65.2064 135.073 65.0727C134.951 64.939 134.796 64.8356 134.607 64.7627C134.425 64.6897 134.17 64.6107 133.841 64.5256C133.428 64.4161 133.091 64.3067 132.829 64.1973C132.574 64.0818 132.355 63.9055 132.173 63.6684C131.99 63.4313 131.899 63.1151 131.899 62.72C131.899 62.3552 131.99 62.036 132.173 61.7625C132.355 61.4889 132.61 61.2792 132.939 61.1333C133.267 60.9874 133.647 60.9144 134.079 60.9144C134.693 60.9144 135.194 61.0694 135.583 61.3795C135.978 61.6834 136.197 62.1029 136.24 62.6379H135.091C135.073 62.4069 134.963 62.2093 134.763 62.0452C134.562 61.881 134.297 61.799 133.969 61.799C133.671 61.799 133.428 61.8749 133.24 62.0269C133.051 62.1789 132.957 62.3978 132.957 62.6835C132.957 62.878 133.015 63.0391 133.13 63.1668C133.252 63.2884 133.404 63.3857 133.586 63.4586C133.769 63.5316 134.018 63.6106 134.334 63.6957C134.753 63.8112 135.094 63.9267 135.355 64.0422C135.623 64.1578 135.848 64.3371 136.03 64.5803C136.219 64.8174 136.313 65.1365 136.313 65.5378C136.313 65.86 136.225 66.1639 136.048 66.4497C135.878 66.7354 135.626 66.9664 135.291 67.1427C134.963 67.313 134.574 67.3981 134.124 67.3981Z" fill="black"/>
</svg>
