<svg width="48" height="48" viewBox="0 0 48 48" fill="none" xmlns="http://www.w3.org/2000/svg">
<g clip-path="url(#clip0_484_522)">
<path fill-rule="evenodd" clip-rule="evenodd" d="M14.8404 42.9784H33.1589V37.6604C33.1589 34.7285 30.7738 32.3425 27.8409 32.3425L26.9272 32.3425C26.057 32.9165 25.0474 33.2185 24.0001 33.2185C22.9518 33.2185 21.9422 32.9165 21.072 32.3425L20.1583 32.3425C17.2264 32.3425 14.8403 34.7285 14.8403 37.6604L14.8404 42.9784ZM33.5305 43.7218H14.4687C14.2635 43.7218 14.0969 43.5553 14.0969 43.35L14.097 37.6604C14.097 34.3181 16.8159 31.5991 20.1583 31.5991H21.1862C21.2608 31.5991 21.3353 31.6223 21.3973 31.6649C22.1639 32.1954 23.0641 32.4751 24.0001 32.4751C24.9351 32.4751 25.8353 32.1954 26.6029 31.6649C26.6649 31.6223 26.7384 31.5991 26.8139 31.5991H27.841C31.1833 31.5991 33.9023 34.3181 33.9023 37.6604L33.9023 43.35C33.9023 43.5553 33.7357 43.7218 33.5305 43.7218Z" fill="black"/>
<path fill-rule="evenodd" clip-rule="evenodd" d="M23.9875 20.9607C21.4572 20.9607 19.3994 23.0195 19.3994 25.5488C19.3995 28.079 21.4572 30.1368 23.9875 30.1368C26.5178 30.1368 28.5756 28.079 28.5756 25.5488C28.5756 23.0195 26.5177 20.9607 23.9875 20.9607ZM23.9875 30.8802C21.0478 30.8802 18.656 28.4884 18.656 25.5488C18.6561 22.6091 21.0478 20.2173 23.9875 20.2173C26.9272 20.2173 29.319 22.6091 29.319 25.5488C29.319 28.4884 26.9272 30.8802 23.9875 30.8802Z" fill="black"/>
<path fill-rule="evenodd" clip-rule="evenodd" d="M29.8349 43.7216C29.6297 43.7216 29.4631 43.5551 29.4631 43.3499L29.4632 39.3629C29.4632 39.1577 29.6296 38.9912 29.8349 38.9912C30.0401 38.9912 30.2065 39.1577 30.2065 39.3629L30.2066 43.3499C30.2066 43.5551 30.0401 43.7216 29.8349 43.7216Z" fill="black"/>
<path fill-rule="evenodd" clip-rule="evenodd" d="M18.1643 43.7216C17.9592 43.7216 17.7926 43.5551 17.7926 43.3499L17.7927 39.3629C17.7927 39.1577 17.9591 38.9912 18.1643 38.9912C18.3696 38.9912 18.536 39.1577 18.536 39.3629L18.5361 43.3499C18.5361 43.5551 18.3695 43.7216 18.1643 43.7216Z" fill="black"/>
<path fill-rule="evenodd" clip-rule="evenodd" d="M11.0237 24.9738C8.97652 24.9738 7.31064 26.6397 7.31064 28.6879C7.31066 30.7351 8.97647 32.401 11.0237 32.401C13.072 32.401 14.7378 30.7351 14.7378 28.6879C14.7378 26.6397 13.0719 24.9738 11.0237 24.9738ZM11.0237 33.1444C8.5661 33.1444 6.56726 31.1456 6.56726 28.6879C6.56734 26.2303 8.56605 24.2305 11.0237 24.2305C13.4814 24.2305 15.4811 26.2303 15.4811 28.6879C15.4811 31.1455 13.4813 33.1444 11.0237 33.1444Z" fill="black"/>
<path fill-rule="evenodd" clip-rule="evenodd" d="M6.22754 43.722C6.02228 43.722 5.85571 43.5555 5.85571 43.3503L5.85574 40.0661C5.85574 39.8608 6.02225 39.6943 6.22746 39.6943C6.43269 39.6943 6.59912 39.8608 6.59912 40.0661L6.59917 43.3503C6.59917 43.5555 6.43264 43.722 6.22754 43.722Z" fill="black"/>
<path fill-rule="evenodd" clip-rule="evenodd" d="M14.4687 43.722H3.18427C2.97901 43.722 2.8125 43.5556 2.8125 43.3503L2.81261 38.6635C2.81261 35.8748 5.08138 33.606 7.87008 33.606H8.71613C8.79159 33.606 8.86512 33.6292 8.92804 33.6718C9.54851 34.1006 10.2774 34.3271 11.0343 34.3271C11.7913 34.3271 12.5201 34.1006 13.1406 33.6718C13.2036 33.6292 13.2771 33.606 13.3526 33.606H14.1986C14.73 33.606 15.2555 33.6892 15.7608 33.8547C15.9554 33.9186 16.0619 34.1287 15.998 34.3232C15.9341 34.5187 15.725 34.6252 15.5295 34.5613C15.0997 34.421 14.6515 34.3493 14.1986 34.3493H13.4649C12.7418 34.8217 11.9035 35.0705 11.0343 35.0705C10.1652 35.0705 9.32686 34.8217 8.60377 34.3493H7.87011C5.49086 34.3493 3.55588 36.2843 3.55588 38.6635L3.5559 42.9786H14.4687C14.6739 42.9786 14.8403 43.1442 14.8403 43.3503C14.8404 43.5556 14.6738 43.722 14.4687 43.722Z" fill="black"/>
<path fill-rule="evenodd" clip-rule="evenodd" d="M11.0237 24.9738C8.97652 24.9738 7.31064 26.6397 7.31064 28.6879C7.31066 30.7351 8.97647 32.401 11.0237 32.401C13.072 32.401 14.7378 30.7351 14.7378 28.6879C14.7378 26.6397 13.0719 24.9738 11.0237 24.9738ZM11.0237 33.1444C8.5661 33.1444 6.56726 31.1456 6.56726 28.6879C6.56734 26.2303 8.56605 24.2305 11.0237 24.2305C13.4814 24.2305 15.4811 26.2303 15.4811 28.6879C15.4811 31.1455 13.4813 33.1444 11.0237 33.1444Z" fill="black"/>
<path fill-rule="evenodd" clip-rule="evenodd" d="M6.22754 43.722C6.02228 43.722 5.85571 43.5555 5.85571 43.3503L5.85574 40.0661C5.85574 39.8608 6.02225 39.6943 6.22746 39.6943C6.43269 39.6943 6.59912 39.8608 6.59912 40.0661L6.59917 43.3503C6.59917 43.5555 6.43264 43.722 6.22754 43.722Z" fill="black"/>
<path fill-rule="evenodd" clip-rule="evenodd" d="M44.816 43.722H33.5306C33.3254 43.722 33.1589 43.5556 33.1589 43.3503C33.1589 43.1442 33.3254 42.9786 33.5306 42.9786H44.4444V38.6635C44.4444 36.2843 42.5083 34.3493 40.1291 34.3493H39.3964C38.6724 34.8217 37.8341 35.0705 36.9649 35.0705C36.0957 35.0705 35.2584 34.8217 34.5344 34.3493H33.8007C33.3477 34.3493 32.8995 34.421 32.4697 34.5613C32.2753 34.6252 32.0651 34.5187 32.0012 34.3232C31.9373 34.1287 32.0438 33.9186 32.2393 33.8547C32.7437 33.6892 33.2692 33.606 33.8006 33.606H34.6476C34.7232 33.606 34.7967 33.6292 34.8586 33.6718C35.4791 34.1006 36.2079 34.3271 36.9649 34.3271C37.7228 34.3271 38.4507 34.1006 39.0721 33.6718C39.1341 33.6292 39.2076 33.606 39.2831 33.606H40.1292C42.9188 33.606 45.1876 35.8748 45.1876 38.6635V43.3503C45.1876 43.5556 45.0212 43.722 44.816 43.722Z" fill="black"/>
<path fill-rule="evenodd" clip-rule="evenodd" d="M36.9755 24.9738C34.9273 24.9738 33.2614 26.6397 33.2614 28.6879C33.2615 30.7351 34.9273 32.401 36.9755 32.401C39.0227 32.401 40.6895 30.7351 40.6895 28.6879C40.6896 26.6397 39.0227 24.9738 36.9755 24.9738ZM36.9755 33.1444C34.5179 33.1444 32.5181 31.1456 32.5181 28.6879C32.5181 26.2303 34.5178 24.2305 36.9755 24.2305C39.4332 24.2305 41.4319 26.2303 41.4319 28.6879C41.432 31.1455 39.4331 33.1444 36.9755 33.1444Z" fill="black"/>
<path fill-rule="evenodd" clip-rule="evenodd" d="M41.7717 43.722C41.5666 43.722 41.4 43.5555 41.4 43.3503L41.4 40.0661C41.4 39.8608 41.5665 39.6943 41.7717 39.6943C41.977 39.6943 42.1434 39.8608 42.1434 40.0661L42.1435 43.3503C42.1435 43.5555 41.9769 43.722 41.7717 43.722Z" fill="black"/>
<path fill-rule="evenodd" clip-rule="evenodd" d="M24.0001 5.02121C20.6945 5.02121 18.0055 7.7102 18.0055 11.0148C18.0056 14.3194 20.6944 17.0083 24 17.0083C27.3046 17.0083 29.9936 14.3194 29.9936 11.0148C29.9936 7.71017 27.3046 5.02121 24.0001 5.02121ZM24.0001 17.7517C20.2851 17.7517 17.2621 14.7298 17.2621 11.0148C17.2621 7.29978 20.285 4.27783 24 4.27783C27.715 4.2778 30.7369 7.29978 30.7369 11.0148C30.737 14.7298 27.715 17.7517 24.0001 17.7517Z" fill="black"/>
<path fill-rule="evenodd" clip-rule="evenodd" d="M20.0867 10.618L21.86 13.4231L27.9087 9.23771L27.4664 8.59787L22.403 12.1019C22.3197 12.159 22.2161 12.1803 22.1174 12.16C22.0177 12.1396 21.9315 12.0796 21.8773 11.9944L20.7439 10.2028L20.0867 10.618ZM21.7525 14.3204C21.7283 14.3204 21.7031 14.3185 21.6789 14.3127C21.5792 14.2933 21.4931 14.2333 21.4389 14.1472L19.2601 10.7013C19.2068 10.618 19.1893 10.5173 19.2106 10.4215C19.233 10.3247 19.2919 10.2415 19.3752 10.1882L20.6607 9.37515C20.8339 9.26578 21.0643 9.31805 21.1736 9.49134L22.2985 11.2694L27.3482 7.7751C27.5177 7.658 27.7489 7.70061 27.8661 7.86999L28.7314 9.12059C28.7876 9.20189 28.8089 9.3016 28.7914 9.39838C28.7741 9.49615 28.7188 9.58136 28.6375 9.63747L21.9645 14.2546C21.9016 14.2982 21.8279 14.3205 21.7525 14.3204Z" fill="black"/>
</g>
<defs>
<clipPath id="clip0_484_522">
<rect width="48" height="48" fill="white"/>
</clipPath>
</defs>
</svg>
