<svg width="36" height="34" viewBox="0 0 36 34" fill="none" xmlns="http://www.w3.org/2000/svg">
<path fill-rule="evenodd" clip-rule="evenodd" d="M35.6247 30.2344C35.4176 30.2344 35.2498 30.0665 35.2498 29.8594V6.35204H32.772C32.5648 6.35204 32.397 6.18418 32.397 5.97706C32.397 5.76991 32.5648 5.60205 32.772 5.60205H35.6247C35.8319 5.60205 35.9998 5.76991 35.9998 5.97706V29.8594C35.9998 30.0665 35.832 30.2344 35.6247 30.2344ZM23.7915 6.35205H16.2602C16.0531 6.35205 15.8853 6.18418 15.8853 5.97706C15.8853 5.76992 16.0531 5.60205 16.2602 5.60205H23.7915C23.9986 5.60205 24.1665 5.76992 24.1665 5.97706C24.1665 6.18418 23.9986 6.35205 23.7915 6.35205ZM9.2666 6.35205H4.94972C4.74257 6.35205 4.57471 6.18418 4.57471 5.97706C4.57471 5.76992 4.74257 5.60205 4.94972 5.60205H9.2666C9.47372 5.60205 9.64159 5.76992 9.64159 5.97706C9.64159 6.18418 9.47361 6.35205 9.2666 6.35205Z" fill="black"/>
<path fill-rule="evenodd" clip-rule="evenodd" d="M0.374982 30.234C0.167864 30.234 0 30.0662 0 29.8591V2.66244C0 1.19435 1.19434 5.53206e-05 2.66239 5.53206e-05L4.94982 0C5.15693 0 5.3248 0.167864 5.3248 0.375009V27.0583C5.3248 27.2654 5.15693 27.4333 4.94982 27.4333C4.74267 27.4333 4.57481 27.2654 4.57481 27.0583V0.749986H2.66239C1.6079 0.749986 0.749999 1.60788 0.749999 2.66235V29.8591C0.749999 30.0662 0.582127 30.234 0.374982 30.234Z" fill="black"/>
<path fill-rule="evenodd" clip-rule="evenodd" d="M32.8242 33.0354H3.176C1.42472 33.0354 0 31.6107 0 29.8595C0 28.1083 1.42472 26.6837 3.176 26.6837L4.95432 26.6836C5.16147 26.6836 5.32933 26.8515 5.32933 27.0586C5.32933 27.2657 5.16147 27.4336 4.95432 27.4336H3.176C1.83829 27.4336 0.74994 28.5219 0.74994 29.8595C0.74994 31.1971 1.83832 32.2854 3.176 32.2854L32.8242 32.2854C34.1617 32.2854 35.2499 31.1971 35.2499 29.8595C35.2499 29.6524 35.4178 29.4845 35.6249 29.4845C35.832 29.4845 35.9999 29.6524 35.9999 29.8595C35.9998 31.6107 34.5752 33.0354 32.8242 33.0354Z" fill="black"/>
<path fill-rule="evenodd" clip-rule="evenodd" d="M25.4388 25.2332C25.3429 25.2332 25.2468 25.1966 25.1736 25.1233L15.9041 15.8539C15.8337 15.7836 15.7942 15.6881 15.7942 15.5888C15.7942 15.4894 15.8336 15.3939 15.9041 15.3236L18.2868 12.9409C18.4273 12.8003 18.6764 12.8003 18.817 12.9409L28.0866 22.2105C28.2331 22.3569 28.2331 22.5944 28.0866 22.7408L25.7039 25.1234C25.6307 25.1965 25.5347 25.2332 25.4388 25.2332ZM16.6995 15.5887L25.4388 24.3279L27.2911 22.4755L18.552 13.7363L16.6995 15.5887Z" fill="black"/>
<path fill-rule="evenodd" clip-rule="evenodd" d="M16.1692 15.9639C16.1403 15.9639 16.1111 15.9605 16.0823 15.9537C15.9557 15.9235 15.8537 15.8299 15.813 15.7061L14.6329 12.1228C14.5884 11.9879 14.624 11.8394 14.7248 11.7393C14.8256 11.6392 14.9745 11.6046 15.1087 11.6501L18.6717 12.8508C18.7946 12.8922 18.8874 12.9943 18.917 13.1206C18.9467 13.2469 18.9088 13.3796 18.8171 13.4713L16.4345 15.854C16.3632 15.9252 16.2675 15.9639 16.1692 15.9639ZM15.5797 12.6003L16.3348 14.8929L17.8593 13.3685L15.5797 12.6003Z" fill="black"/>
<path fill-rule="evenodd" clip-rule="evenodd" d="M27.0051 26.7996C26.9056 26.7996 26.8103 26.7602 26.74 26.6897L25.1736 25.1233C25.0271 24.977 25.0271 24.7394 25.1736 24.5931L27.5562 22.2104C27.7025 22.0639 27.9402 22.064 28.0865 22.2103L29.6529 23.7767C29.7233 23.8471 29.7628 23.9424 29.7628 24.0419C29.7628 24.1414 29.7233 24.2367 29.6529 24.307L27.2703 26.6897C27.1999 26.7602 27.1045 26.7996 27.0051 26.7996ZM25.9691 24.8582L27.0051 25.8943L28.8574 24.0418L27.8214 23.0059L25.9691 24.8582Z" fill="black"/>
<path fill-rule="evenodd" clip-rule="evenodd" d="M23.8191 21.2313C23.7233 21.2313 23.6271 21.1947 23.554 21.1215L19.9063 17.4736C19.7598 17.3273 19.7598 17.0897 19.9063 16.9434C20.0525 16.7969 20.2902 16.7969 20.4365 16.9434L24.0843 20.5912C24.2308 20.7376 24.2308 20.9751 24.0843 21.1215C24.0111 21.1947 23.915 21.2313 23.8191 21.2313Z" fill="black"/>
<path fill-rule="evenodd" clip-rule="evenodd" d="M24.9206 27.9777C24.9202 27.9777 24.9213 27.9777 24.9206 27.9777H8.35032C8.14321 27.9777 7.97534 27.8098 7.97534 27.6027V11.0342C7.97534 10.8826 8.06675 10.7459 8.20688 10.6877C8.34678 10.6297 8.50822 10.6618 8.61557 10.7691L25.1621 27.3157C25.2438 27.3845 25.2957 27.4875 25.2957 27.6026C25.2957 27.8098 25.1278 27.9777 24.9206 27.9777ZM8.72534 27.2277H24.0134L8.72534 11.9395V27.2277Z" fill="black"/>
<path fill-rule="evenodd" clip-rule="evenodd" d="M18.5912 25.3558C18.5907 25.3559 18.592 25.3559 18.5912 25.3558H10.9722C10.765 25.3558 10.5972 25.188 10.5972 24.9808V17.3638C10.5972 17.2121 10.6886 17.0754 10.8286 17.0173C10.9688 16.9593 11.1301 16.9913 11.2373 17.0987L18.8325 24.6939C18.9143 24.7627 18.9662 24.8657 18.9662 24.9808C18.9663 25.188 18.7983 25.3558 18.5912 25.3558ZM11.3472 24.6058H17.6839L11.3472 18.269V24.6058Z" fill="black"/>
<path fill-rule="evenodd" clip-rule="evenodd" d="M20.6401 27.9776C20.433 27.9776 20.2651 27.8098 20.2651 27.6026V26.8008C20.2651 26.5936 20.433 26.4258 20.6401 26.4258C20.8473 26.4258 21.0151 26.5936 21.0151 26.8008V27.6026C21.0151 27.8098 20.8473 27.9776 20.6401 27.9776Z" fill="black"/>
<path fill-rule="evenodd" clip-rule="evenodd" d="M17.9697 27.9776C17.7626 27.9776 17.5947 27.8098 17.5947 27.6026V26.8008C17.5947 26.5936 17.7626 26.4258 17.9697 26.4258C18.1769 26.4258 18.3447 26.5936 18.3447 26.8008V27.6026C18.3447 27.8098 18.1769 27.9776 17.9697 27.9776Z" fill="black"/>
<path fill-rule="evenodd" clip-rule="evenodd" d="M15.2993 27.9776C15.0922 27.9776 14.9243 27.8098 14.9243 27.6026V26.8008C14.9243 26.5936 15.0922 26.4258 15.2993 26.4258C15.5064 26.4258 15.6743 26.5936 15.6743 26.8008V27.6026C15.6743 27.8098 15.5064 27.9776 15.2993 27.9776Z" fill="black"/>
<path fill-rule="evenodd" clip-rule="evenodd" d="M12.6289 27.9776C12.4218 27.9776 12.2539 27.8098 12.2539 27.6026V26.8008C12.2539 26.5936 12.4218 26.4258 12.6289 26.4258C12.836 26.4258 13.0039 26.5936 13.0039 26.8008V27.6026C13.0039 27.8098 12.836 27.9776 12.6289 27.9776Z" fill="black"/>
<path fill-rule="evenodd" clip-rule="evenodd" d="M32.7605 26.1791C32.5534 26.1791 32.3855 26.0112 32.3855 25.8041V19.3183C32.3855 19.1112 32.5534 18.9434 32.7605 18.9434C32.9676 18.9434 33.1355 19.1112 33.1355 19.3183V25.8041C33.1355 26.0112 32.9677 26.1791 32.7605 26.1791Z" fill="black"/>
<path fill-rule="evenodd" clip-rule="evenodd" d="M27.6497 30.4824H8.35032C8.14321 30.4824 7.97534 30.3145 7.97534 30.1074C7.97534 29.9003 8.14321 29.7324 8.35032 29.7324H27.6497C27.8569 29.7324 28.0247 29.9003 28.0247 30.1074C28.0247 30.3145 27.8569 30.4824 27.6497 30.4824Z" fill="black"/>
<path fill-rule="evenodd" clip-rule="evenodd" d="M30.0547 15.357C29.8476 15.357 29.6797 15.1891 29.6797 14.982C29.6797 12.935 30.5829 12.2898 31.3798 11.7206C32.2053 11.1309 32.985 10.574 32.985 8.34956C32.985 5.75618 30.8752 3.64645 28.2819 3.64645C25.6885 3.64645 23.5787 5.75621 23.5787 8.34956C23.5787 10.5739 24.3584 11.1308 25.1839 11.7206C25.9808 12.2898 26.884 12.9351 26.884 14.982C26.884 15.1891 26.7161 15.357 26.509 15.357C26.3019 15.357 26.134 15.1891 26.134 14.982C26.134 13.321 25.5223 12.884 24.7479 12.3308C23.8484 11.6882 22.8289 10.9599 22.8289 8.34958C22.8289 5.34278 25.2751 2.89648 28.282 2.89648C31.2888 2.89648 33.7351 5.34278 33.7351 8.34958C33.7351 10.9598 32.7155 11.6883 31.816 12.3308C31.0415 12.884 30.4299 13.3211 30.4299 14.982C30.4297 15.1891 30.2619 15.357 30.0547 15.357Z" fill="black"/>
<path fill-rule="evenodd" clip-rule="evenodd" d="M30.448 16.6194H26.1152C25.9081 16.6194 25.7402 16.4514 25.7402 16.2444V14.9824C25.7402 14.7753 25.9081 14.6074 26.1152 14.6074H30.448C30.6552 14.6074 30.823 14.7753 30.823 14.9824V16.2444C30.823 16.4514 30.6552 16.6194 30.448 16.6194ZM26.4901 15.8694H30.0729V15.3573L26.4901 15.3573V15.8694Z" fill="black"/>
<path fill-rule="evenodd" clip-rule="evenodd" d="M29.8173 17.8811H26.7466C26.5394 17.8811 26.3716 17.7132 26.3716 17.5061V16.2442C26.3716 16.037 26.5394 15.8692 26.7466 15.8692C26.9537 15.8692 27.1216 16.037 27.1216 16.2442V17.1312L29.4424 17.1311V16.2442C29.4424 16.037 29.6103 15.8691 29.8174 15.8691C30.0245 15.8691 30.1924 16.037 30.1924 16.2442V17.506C30.1923 17.7132 30.0244 17.8811 29.8173 17.8811Z" fill="black"/>
<path fill-rule="evenodd" clip-rule="evenodd" d="M28.2817 15.3574C28.0746 15.3574 27.9067 15.1895 27.9067 14.9824V10.4609C27.9067 10.2538 28.0746 10.0859 28.2817 10.0859C28.4889 10.0859 28.6568 10.2538 28.6568 10.4609V14.9824C28.6568 15.1895 28.4889 15.3574 28.2817 15.3574Z" fill="black"/>
<path fill-rule="evenodd" clip-rule="evenodd" d="M28.2817 10.8359C27.288 10.8359 26.4795 10.0274 26.4795 9.03367C26.4795 8.82656 26.6474 8.65869 26.8545 8.65869C27.0616 8.65869 27.2295 8.82656 27.2295 9.03367C27.2295 9.61386 27.7015 10.0859 28.2817 10.0859C28.8619 10.0859 29.334 9.61387 29.334 9.03367C29.334 8.82656 29.5019 8.65869 29.709 8.65869C29.9161 8.65869 30.084 8.82656 30.084 9.03367C30.084 10.0275 29.2755 10.8359 28.2817 10.8359Z" fill="black"/>
<path fill-rule="evenodd" clip-rule="evenodd" d="M28.2817 2.05382C28.0746 2.05382 27.9067 1.88595 27.9067 1.67884V0.375009C27.9067 0.167864 28.0746 0 28.2817 0C28.4889 0 28.6568 0.167864 28.6568 0.375009V1.67884C28.6568 1.88595 28.4889 2.05382 28.2817 2.05382Z" fill="black"/>
<path fill-rule="evenodd" clip-rule="evenodd" d="M24.5582 3.05211C24.4286 3.05211 24.3025 2.98481 24.2331 2.86451L23.5811 1.73541C23.4775 1.55608 23.5389 1.32671 23.7183 1.2232C23.8975 1.11959 24.1271 1.18101 24.2305 1.3604L24.8824 2.4895C24.9861 2.66879 24.9246 2.89819 24.7453 3.00181C24.6863 3.03591 24.6218 3.05211 24.5582 3.05211Z" fill="black"/>
<path fill-rule="evenodd" clip-rule="evenodd" d="M32.0055 3.05167C31.9419 3.05167 31.8774 3.03547 31.8184 3.00137C31.639 2.89776 31.5776 2.66844 31.6812 2.48906L32.3332 1.35996C32.4366 1.18058 32.666 1.11904 32.8454 1.22276C33.0247 1.3263 33.0862 1.5557 32.9826 1.73497L32.3306 2.86407C32.2612 2.98437 32.1351 3.05167 32.0055 3.05167Z" fill="black"/>
<path fill-rule="evenodd" clip-rule="evenodd" d="M13.5827 9.99616H11.9443C11.7479 9.99616 11.5847 9.84462 11.5702 9.64883L11.5037 8.74706C11.005 8.57947 10.5436 8.31267 10.1476 7.96304L9.33239 8.35668C9.15533 8.44203 8.94273 8.37661 8.84449 8.20651L8.02535 6.78766C7.92721 6.61756 7.97682 6.40056 8.13923 6.2901L8.88726 5.78131C8.83552 5.5242 8.80942 5.26177 8.80942 4.99809C8.80942 4.73434 8.8356 4.47191 8.88726 4.21485L8.13934 3.706C7.97693 3.59555 7.92733 3.37847 8.02546 3.20842L8.8446 1.78965C8.94284 1.61954 9.15553 1.5541 9.3325 1.63947L10.1477 2.03311C10.5438 1.68349 11.0051 1.41669 11.5038 1.2491L11.5703 0.347356C11.5848 0.151422 11.7479 0 11.9444 0L13.5827 0.000111479C13.779 0.000111479 13.9422 0.151643 13.9567 0.347466L14.0233 1.24921C14.5219 1.41691 14.9833 1.6836 15.3793 2.03322L16.1946 1.63958C16.3716 1.55413 16.5842 1.61976 16.6825 1.78976L17.5016 3.20853C17.5997 3.37863 17.5501 3.59563 17.3877 3.70611L16.6398 4.21497C16.6915 4.47202 16.7176 4.73439 16.7176 4.99821C16.7176 5.26188 16.6915 5.52425 16.6398 5.78142L17.3878 6.29021C17.5502 6.40064 17.5998 6.61764 17.5017 6.78777L16.6826 8.20662C16.5844 8.37672 16.3716 8.44225 16.1947 8.35679L15.3795 7.96315C14.9834 8.31278 14.5221 8.57958 14.0234 8.74717L13.9568 9.64894C13.9421 9.84462 13.779 9.99616 13.5827 9.99616ZM12.2926 9.24627H13.2343L13.2943 8.43427C13.3061 8.27419 13.4184 8.13943 13.5737 8.09902C14.129 7.9544 14.637 7.66064 15.0428 7.2497C15.1556 7.13565 15.3285 7.10576 15.4727 7.17549L16.207 7.53007L16.6778 6.71455L16.0044 6.25644C15.8718 6.16631 15.8112 6.00193 15.8536 5.84736C15.9292 5.57159 15.9675 5.28594 15.9675 4.99835C15.9675 4.71056 15.9292 4.42491 15.8536 4.14942C15.8112 3.99484 15.8717 3.83038 16.0043 3.74025L16.6777 3.28214L16.2069 2.46663L15.4726 2.82121C15.3283 2.89083 15.1556 2.86115 15.0428 2.74699C14.6368 2.33602 14.1288 2.04232 13.5736 1.89765C13.4184 1.85724 13.306 1.72245 13.2942 1.56242L13.2342 0.750423H12.2925L12.2326 1.56242C12.2207 1.72248 12.1084 1.85723 11.9531 1.89765C11.3979 2.04226 10.8899 2.33603 10.484 2.74699C10.3713 2.86115 10.1986 2.89105 10.0541 2.82121L9.31996 2.46663L8.84915 3.28214L9.52259 3.74025C9.65511 3.83038 9.71573 3.99484 9.6733 4.14942C9.59781 4.42502 9.55944 4.71068 9.55944 4.99835C9.55944 5.28594 9.5977 5.57159 9.6733 5.84736C9.71568 6.00193 9.65503 6.16642 9.52251 6.25644L8.84906 6.71455L9.31988 7.53007L10.0541 7.17549C10.1985 7.10595 10.3712 7.13554 10.4839 7.2497C10.8898 7.66064 11.3978 7.95438 11.9531 8.09902C12.1084 8.13943 12.2207 8.27424 12.2325 8.43427L12.2926 9.24627Z" fill="black"/>
<path fill-rule="evenodd" clip-rule="evenodd" d="M12.7633 7.42851C11.4234 7.42851 10.3333 6.33839 10.3333 4.99843C10.3333 3.65848 11.4234 2.56836 12.7633 2.56836C14.1034 2.56836 15.1935 3.65848 15.1935 4.99843C15.1935 6.33839 14.1034 7.42851 12.7633 7.42851ZM12.7633 3.31826C11.837 3.31826 11.0832 4.07199 11.0832 4.99846C11.0832 5.92493 11.837 6.67866 12.7633 6.67866C13.6898 6.67866 14.4435 5.92493 14.4435 4.99846C14.4435 4.07199 13.6898 3.31826 12.7633 3.31826Z" fill="black"/>
</svg>
