<svg width="40" height="40" viewBox="0 0 40 40" fill="none" xmlns="http://www.w3.org/2000/svg">
<path d="M23.9426 30.0204L23.0974 29.898C23.0369 29.7039 22.9585 29.5154 22.8635 29.3356L23.3739 28.6542C23.419 28.594 23.4129 28.5098 23.3596 28.4567L22.3426 27.4437C22.2897 27.391 22.2061 27.3848 22.146 27.4295L21.4612 27.9384C21.2806 27.8435 21.0912 27.7653 20.8959 27.7049L20.7729 26.8635C20.7621 26.7894 20.6986 26.7344 20.6235 26.7344H19.1852C19.1103 26.7344 19.0466 26.7894 19.0358 26.8635L18.9129 27.7049C18.7176 27.7653 18.5281 27.8435 18.3475 27.9384L17.6628 27.4295C17.6028 27.3849 17.5191 27.391 17.4662 27.4437L16.4491 28.4567C16.3958 28.5098 16.3897 28.594 16.4349 28.6542L16.9452 29.3356C16.8502 29.5154 16.7718 29.7039 16.7113 29.898L15.8661 30.0204C15.7919 30.0312 15.7368 30.0948 15.7368 30.1698V31.6025C15.7368 31.6775 15.7918 31.7412 15.8661 31.7519L16.7113 31.8743C16.7718 32.0684 16.8502 32.2569 16.9452 32.4367L16.4349 33.1181C16.3897 33.1783 16.3958 33.2625 16.4491 33.3156L17.4662 34.3286C17.519 34.3813 17.6028 34.3875 17.6628 34.3428L18.3475 33.834C18.5283 33.9289 18.7177 34.0071 18.9129 34.0674L19.0358 34.9088C19.0466 34.9829 19.1102 35.0379 19.1852 35.0379H20.6235C20.6985 35.0379 20.7621 34.9829 20.7729 34.9088L20.8959 34.0674C21.091 34.0071 21.2805 33.9289 21.4612 33.834L22.146 34.3428C22.2061 34.3875 22.2897 34.3815 22.3426 34.3286L23.3596 33.3156C23.4129 33.2625 23.419 33.1783 23.3739 33.1181L22.8635 32.4367C22.9585 32.2569 23.0369 32.0684 23.0974 31.8743L23.9426 31.7519C24.0168 31.7411 24.0719 31.6776 24.0719 31.6025V30.1698C24.0719 30.0948 24.0168 30.0312 23.9426 30.0204ZM22.018 30.8862C22.018 32.0517 21.0697 32.9999 19.9043 32.9999C18.7388 32.9999 17.7906 32.0517 17.7906 30.8862C17.7906 29.7207 18.7388 28.7725 19.9043 28.7725C21.0697 28.7725 22.018 29.7206 22.018 30.8862Z" fill="black"/>
<path d="M26.9735 32.9611H25.4668C25.3294 32.9319 25.2881 32.8526 25.3432 32.7234L26.4123 31.202L25.3432 29.6806C25.2881 29.5513 25.3294 29.4721 25.4668 29.4429H26.9735C27.0227 29.4429 27.0688 29.4668 27.0971 29.5071L28.2272 31.1153C28.2637 31.1673 28.2637 31.2368 28.2272 31.2889L27.0971 32.8971C27.0688 32.9372 27.0227 32.9611 26.9735 32.9611ZM25.7574 32.6592H26.8951L27.919 31.2019L26.8951 29.7447H25.7574L26.7204 31.1151C26.7569 31.1671 26.7569 31.2366 26.7204 31.2886L25.7574 32.6592Z" fill="black"/>
<path d="M31.6181 31.1148L30.488 29.5066C30.4597 29.4664 30.4137 29.4424 30.3645 29.4424H28.8576C28.7202 29.4717 28.679 29.5509 28.7341 29.6802L29.8032 31.2015L28.7341 32.7228C28.679 32.8521 28.7202 32.9314 28.8576 32.9606H30.3645C30.4136 32.9606 30.4597 32.9367 30.488 32.8964L31.6181 31.2882C31.6547 31.2363 31.6547 31.1669 31.6181 31.1148Z" fill="black"/>
<path d="M33.7555 32.9606H32.2487C32.1113 32.9314 32.0701 32.8521 32.1252 32.7229L33.1942 31.2015L32.1252 29.6801C32.0701 29.5509 32.1113 29.4716 32.2487 29.4424H33.7555C33.8046 29.4424 33.8508 29.4663 33.8791 29.5065L35.0092 31.1148C35.0458 31.1669 35.0458 31.2363 35.0092 31.2885L33.8791 32.8967C33.8507 32.9367 33.8046 32.9606 33.7555 32.9606ZM32.5393 32.6587H33.677L34.701 31.2014L33.677 29.7442H32.5393L33.5023 31.1146C33.5388 31.1666 33.5388 31.2361 33.5023 31.2882L32.5393 32.6587Z" fill="black"/>
<path d="M33.832 8.18314H33.4254L32.2664 5.98467C32.1715 5.8426 32.0255 5.93508 31.9994 5.98467L30.8404 8.18314H30.5134L29.3488 5.08809C29.2699 4.93274 29.0884 5.02921 29.0662 5.08809L27.9014 8.18314H27.5965L26.4268 4.18502C26.3212 4.01033 26.1559 4.1207 26.1371 4.18502L24.9673 8.18314H24.6787V3.64527C24.6787 3.56185 24.611 3.49414 24.5277 3.49414C24.4443 3.49414 24.3767 3.56178 24.3767 3.64527V8.33427C24.3767 8.41769 24.4443 8.4854 24.5277 8.4854H33.8321C33.9154 8.4854 33.9831 8.41776 33.9831 8.33427C33.9831 8.25078 33.9153 8.18314 33.832 8.18314ZM32.1328 6.37903L33.0841 8.18322H31.1817L32.1328 6.37903ZM29.2074 5.57009L30.1906 8.18314H28.224L29.2074 5.57009Z" fill="black"/>
<path d="M36.057 37.3745C36.045 37.3002 35.9752 37.2488 35.8999 37.2488H12.8182L12.4128 29.9747L13.1907 21.4775C13.6665 21.7346 14.8683 22.2666 16.0851 21.8758C17.0513 21.5654 17.7976 20.7445 18.3016 19.4402L19.8704 15.7035C19.8977 15.6384 19.8757 15.5642 19.8197 15.5233L20.1782 15.2522C20.6915 14.8062 20.7584 14.2814 20.327 13.7666L19.9309 13.3523L20.878 12.7436L24.8899 16.6938C24.9483 16.7514 25.0423 16.7517 25.101 16.6944L28.6002 13.2867L34.5996 19.3879L33.0068 19.2193C32.9147 19.2099 32.8349 19.2836 32.8401 19.3795C32.8441 19.4543 32.9074 19.5128 32.9819 19.5206L34.9694 19.731C35.1303 19.7448 35.1873 19.6187 35.1721 19.5635L34.8865 17.5389C34.8728 17.4426 34.7702 17.3797 34.6755 17.4223C34.6123 17.4508 34.5791 17.5218 34.5889 17.5905L34.8121 19.1729L28.7102 12.9676C28.6519 12.9083 28.5568 12.9074 28.4973 12.9653L24.9964 16.3748L21.1333 12.571C21.3333 12.3946 21.399 12.0902 21.2553 11.8541C21.0887 11.5804 20.8024 11.4198 20.4154 11.6194C20.3656 11.645 20.3157 11.6804 20.2621 11.7132L18.8545 10.3273C18.7957 10.2694 18.7014 10.2695 18.6427 10.3274L15.8846 13.0496L9.76851 6.94591C9.7094 6.88688 9.61383 6.8871 9.55503 6.94621C9.49614 7.00532 9.49629 7.10104 9.55533 7.15992L15.7773 13.3692C15.8361 13.4279 15.9309 13.4281 15.9899 13.3698L18.7488 10.6469L19.9963 11.8753C19.5133 12.1701 18.9259 12.5279 18.5602 12.7503C18.3019 12.9076 18.1172 13.1555 18.041 13.4452L17.7808 14.3505C17.7116 14.3209 17.63 14.3458 17.5911 14.4123L15.2382 18.4402C14.7075 18.2788 12.4367 17.6222 9.98614 17.4129C9.93768 17.2588 9.85977 16.963 9.83735 16.6025C10.1895 16.6234 10.5245 16.5261 10.8422 16.3106C11.5109 15.7575 11.5839 14.4747 11.0602 12.498C11.9761 11.8822 11.5879 10.8999 11.5833 10.8895C11.2986 10.2523 10.5009 9.87217 10.0225 9.76995C8.94001 9.53865 8.07589 9.57421 7.44427 9.87322V3.24415H21.7537C21.8372 3.24415 21.9049 3.17651 21.9049 3.09302C21.9049 3.00953 21.8372 2.94189 21.7537 2.94189H7.29322C7.20988 2.94189 7.14224 3.00946 7.14224 3.09287V10.049C6.80217 10.2886 6.49198 10.7515 6.41144 11.1559C5.44933 11.2838 4.88203 12.6899 5.04893 13.644C5.25668 14.8319 6.15538 15.7191 7.22996 16.0999C7.2474 16.469 7.2237 17.1389 6.8735 17.4542C6.20935 17.5465 5.61216 17.6991 5.09838 17.9095C5.03837 17.9334 3.62219 18.5224 3.02409 20.9354C2.932 21.3071 2.81725 21.6842 2.70621 22.0488C2.3302 23.2844 1.97502 24.4514 2.51809 25.2848C2.8673 25.8207 3.55297 26.1536 4.61193 26.3005L4.43226 29.9539C4.43604 30.0415 4.47952 30.0937 4.56263 30.1104C4.1719 31.5316 4.44751 32.8087 4.6068 33.3489C4.65405 33.5095 4.66817 33.6729 4.64892 33.8346L4.23894 37.2488H2.39912C2.32386 37.2488 2.2541 37.3002 2.24203 37.3745C2.22663 37.4691 2.29925 37.551 2.39097 37.551H35.9081C35.9998 37.551 36.0724 37.4691 36.057 37.3745ZM18.3321 13.5255C18.3892 13.3085 18.5259 13.125 18.7171 13.0086C19.1994 12.7152 20.0676 12.1865 20.573 11.877C20.73 11.7808 20.8928 11.8551 20.9913 12.0007C21.0625 12.1293 21.023 12.2912 20.9014 12.3693L19.6136 13.197C19.5317 13.2656 19.5225 13.3428 19.5862 13.4286L20.1098 13.9764C20.3976 14.3527 20.3636 14.6949 20.0078 15.0027C20.0051 15.0044 19.5367 15.3586 19.5367 15.3586L18.051 14.5039L18.3321 13.5255ZM10.6505 16.0771C10.0376 16.585 8.96123 16.0754 8.94659 16.0683C8.87178 16.032 8.78142 16.0632 8.74496 16.1383C8.70857 16.2133 8.73982 16.3038 8.81486 16.3401C8.83985 16.3523 9.14165 16.4961 9.53284 16.5666C9.54975 16.9364 9.62206 17.2476 9.678 17.4387C8.82248 17.8726 8.00252 17.8892 7.23933 17.4883C7.52407 17.07 7.54823 16.4582 7.53245 16.0969C9.27074 15.3957 9.71771 13.3338 9.81267 12.7274C10.2018 12.7913 10.5275 12.7645 10.7878 12.6494C11.2509 14.434 11.2042 15.6182 10.6505 16.0771ZM4.62914 25.9974C3.67647 25.862 3.06735 25.5743 2.77106 25.1197C2.30499 24.4044 2.64023 23.303 2.99518 22.137C3.10729 21.7686 3.22324 21.3876 3.31737 21.0082C3.87539 18.7568 5.19735 18.1956 5.21147 18.1899C5.73921 17.9738 6.35958 17.8206 7.05604 17.7344C7.92658 18.2092 8.85849 18.1986 9.82724 17.7029C12.6302 17.9225 15.2357 18.7556 15.2618 18.7639C15.3294 18.7858 15.4027 18.7577 15.4385 18.6965L17.7763 14.6944L19.5405 15.7094L18.0217 19.327C17.551 20.5452 16.8689 21.3057 15.9948 21.5874C14.5998 22.0368 13.1592 21.1102 13.1448 21.1009C13.0247 21.0505 12.947 21.088 12.9117 21.2134L12.1248 29.8102H4.74177L5.03927 23.8293C5.0435 23.7459 4.97926 23.675 4.89607 23.6709C4.81477 23.6667 4.74192 23.7308 4.73777 23.8142L4.62914 25.9974ZM8.76564 37.2488L8.58794 34.3192C8.57428 34.0886 8.50566 33.8602 8.38948 33.6589C8.25118 33.4192 8.03951 33.0024 7.87351 32.4626C7.85396 32.3989 7.79583 32.3548 7.72918 32.3548C7.62787 32.3548 7.55502 32.4531 7.58484 32.55C7.75968 33.1189 7.98252 33.5578 8.12814 33.8101C8.22091 33.971 8.27572 34.1532 8.28666 34.3374L8.46323 37.2489H4.54309L4.94869 33.8707C4.973 33.668 4.95541 33.4637 4.89645 33.2635C4.7423 32.7407 4.47258 31.4905 4.87546 30.1126H12.1181L12.5159 37.2489L8.76564 37.2488Z" fill="black"/>
<path d="M37.3825 2.94203H35.2467V2.3733C35.2467 2.28981 35.179 2.22217 35.0956 2.22217H23.2639C23.1804 2.22217 23.1129 2.28973 23.1129 2.37315V11.1376C23.1129 11.2798 23.2799 11.3301 23.3674 11.2476L24.9578 9.74669H35.0957C35.1791 9.74669 35.2467 9.67912 35.2467 9.59571V3.24421H37.2317V23.3934H15.7966C15.7131 23.3934 15.6455 23.461 15.6455 23.5445C15.6455 23.6279 15.7131 23.6956 15.7966 23.6956H37.3826C37.4661 23.6956 37.5336 23.6281 37.5336 23.5446V3.09309C37.5336 3.00967 37.466 2.94203 37.3825 2.94203ZM34.9447 9.4445H24.8978C24.8593 9.4445 24.8223 9.45922 24.7942 9.48565L23.4148 10.7874V2.52435H34.9447L34.9447 9.4445Z" fill="black"/>
<path d="M14.3661 23.9191C14.5747 23.9191 14.7438 23.75 14.7438 23.5414C14.7438 23.3327 14.5747 23.1636 14.3661 23.1636C14.1574 23.1636 13.9883 23.3327 13.9883 23.5414C13.9883 23.75 14.1574 23.9191 14.3661 23.9191Z" fill="black"/>
<path d="M37.3827 37.7775C37.5913 37.7775 37.7604 37.6084 37.7604 37.3997C37.7604 37.1911 37.5913 37.022 37.3827 37.022C37.174 37.022 37.0049 37.1911 37.0049 37.3997C37.0049 37.6084 37.174 37.7775 37.3827 37.7775Z" fill="black"/>
</svg>
