<svg width="11" height="18" viewBox="0 0 11 18" fill="none" xmlns="http://www.w3.org/2000/svg">
<path d="M10.6224 0.0432986C10.6224 -0.0907449 10.7169 0.138082 10.6224 0.0432986C10.528 -0.0514845 10.7561 0.0432986 10.6224 0.0432986H7.97762C6.70924 -0.0200893 5.39515 0.0754547 4.4512 0.927769C3.50725 1.78008 2.75829 3.19353 2.68798 4.46565V7.11906H0.0431584C-0.0904512 7.11906 0.137635 7.02428 0.0431584 7.11906C-0.0513178 7.21385 0.0431584 6.98502 0.0431584 7.11906V9.77248C0.0431584 9.90652 -0.0513178 10.5622 0.0431584 10.6569C-0.0904512 10.6569 0.137635 10.7517 0.0431584 10.6569H2.68798V17.7327C2.5935 17.6379 2.68798 17.8668 2.68798 17.7327C2.78246 17.8275 3.43598 17.7327 3.56959 17.7327H6.21441C6.11993 17.8275 6.34802 17.7327 6.21441 17.7327C6.30889 17.6379 7.09602 17.8668 7.09602 17.7327V10.6569H8.85923C8.97126 10.6586 9.65143 10.7247 9.74084 10.6569C9.83025 10.5892 9.71172 9.88102 9.74084 9.77248L10.6224 7.11906C10.6373 7.19495 10.6425 7.04439 10.6224 7.11906C10.6076 7.04318 10.6692 7.18058 10.6224 7.11906C10.5757 7.05755 10.6914 7.15358 10.6224 7.11906C10.5535 7.08455 9.81793 7.1195 9.74084 7.11906H7.09602V4.46565C7.12108 4.21545 6.90971 3.7494 7.09602 3.58118C7.28232 3.41296 7.72698 3.57992 7.97762 3.58118H10.6224C10.7561 3.58118 10.528 2.79149 10.6224 2.69671C10.6224 2.83075 10.7169 2.60193 10.6224 2.69671V0.0432986Z" fill="white"/>
</svg>
