<svg width="20" height="20" viewBox="0 0 20 20" fill="none" xmlns="http://www.w3.org/2000/svg">
<path d="M10.6988 0.100411C11.8344 0.103439 12.8508 0.0862798 13.3484 0.100411C13.5745 0.108486 13.9621 0.0882985 14.2316 0.100411C15.3056 0.15088 15.355 -0.148904 15.998 0.100411C16.6642 0.356791 17.2032 0.42341 17.7644 0.983611C18.2779 1.48803 19.2776 2.07623 19.5308 2.75001C19.7801 3.39298 19.4803 4.32463 19.5308 5.39961C19.5429 5.6681 19.5227 6.0557 19.5308 6.28281C19.546 6.77942 19.5288 7.79687 19.5308 8.93241V9.81561V10.6988C19.5333 11.4351 19.5487 12.6124 19.5308 13.3484C19.5227 13.5755 19.5429 13.9631 19.5308 14.2316C19.4803 15.3066 19.7791 15.354 19.5308 15.998C19.2776 16.6718 18.2779 17.26 17.7644 17.7644C17.26 18.2779 16.6718 19.2776 15.998 19.5308C15.355 19.7801 15.3056 19.4803 14.2316 19.5308H13.3484C12.8508 19.5449 11.8344 19.5288 10.6988 19.5308H9.81561H8.93241C8.19584 19.5334 7.01917 19.5489 6.28281 19.5308C6.0432 19.5217 5.63911 19.5426 5.39961 19.5308C4.32564 19.4803 3.39399 19.7801 2.75001 19.5308C2.07659 19.2775 1.48773 18.2778 0.983611 17.7644C0.469786 17.2601 0.353873 16.6719 0.100411 15.998C-0.148904 15.355 0.15088 15.3066 0.100411 14.2316V13.3484C0.0818042 12.6124 0.0986263 11.4351 0.100411 10.6988V8.93241C0.0976171 8.19618 0.0828137 7.01884 0.100411 6.28281C0.108486 6.0557 0.0882985 5.6681 0.100411 5.39961C0.15088 4.32463 -0.148904 3.39399 0.100411 2.75001C0.354464 2.07595 0.469057 1.48773 0.983611 0.983611C1.48744 0.470395 2.07695 0.353837 2.75001 0.100411C3.39399 -0.148904 4.32463 0.15088 5.39961 0.100411C5.6681 0.0882985 6.05671 0.108486 6.28281 0.100411C7.01884 0.0824772 8.19617 0.0979535 8.93241 0.100411H10.6988ZM9.81561 4.51641C8.4771 4.51641 7.22928 5.33634 6.28281 6.28281C5.33634 7.22928 4.51641 8.4771 4.51641 9.81561C4.51641 11.1541 5.33634 12.4019 6.28281 13.3484C7.22928 14.2949 8.4771 15.1148 9.81561 15.1148C11.1541 15.1148 12.4019 14.2949 13.3484 13.3484C14.2949 12.4019 15.1148 11.1541 15.1148 9.81561C15.1148 8.4771 14.2949 7.22928 13.3484 6.28281C12.4019 5.33634 11.1541 4.51641 9.81561 4.51641ZM9.81561 7.16601C10.2133 7.16595 10.3314 7.0139 10.6988 7.16601C11.0662 7.31813 11.3008 7.76807 11.582 8.04921C11.8632 8.33035 12.313 8.56505 12.4652 8.93241C12.6175 9.29977 12.4651 9.41795 12.4652 9.81561C12.4653 10.2133 12.6173 10.3314 12.4652 10.6988C12.3131 11.0662 11.8632 11.3008 11.582 11.582C11.3009 11.8632 11.0662 12.313 10.6988 12.4652C10.3314 12.6175 10.2133 12.4651 9.81561 12.4652C9.01251 12.4652 8.61709 12.1499 8.04921 11.582C7.48133 11.0141 7.16601 10.6187 7.16601 9.81561C7.16601 9.01251 7.48133 8.61709 8.04921 8.04921C8.61709 7.48133 9.01251 7.16601 9.81561 7.16601ZM15.1148 3.63321C14.7802 3.63321 14.4682 3.39659 14.2316 3.63321C13.995 3.86983 14.2316 4.18178 14.2316 4.51641C14.2316 4.85104 13.995 5.16299 14.2316 5.39961C14.4682 5.63623 14.7802 5.39961 15.1148 5.39961C15.4494 5.39961 15.7614 5.63623 15.998 5.39961C16.2346 5.16299 15.998 4.85104 15.998 4.51641C15.998 4.18178 16.2346 3.86983 15.998 3.63321C15.7614 3.39659 15.4494 3.63321 15.1148 3.63321Z" fill="white"/>
</svg>
