<svg width="20" height="20" viewBox="0 0 20 20" fill="none" xmlns="http://www.w3.org/2000/svg">
<path fill-rule="evenodd" clip-rule="evenodd" d="M9.59293 0C14.8907 0 19.1855 4.29478 19.1855 9.59253C19.1855 14.8903 14.8907 19.1851 9.59293 19.1851C7.9332 19.1851 6.37162 18.763 5.00904 18.0206L0.779399 18.73C0.675148 18.7474 0.568259 18.7398 0.467484 18.708C0.366709 18.6761 0.274914 18.6208 0.199614 18.5467C0.124315 18.4725 0.067652 18.3815 0.034266 18.2813C0.000879851 18.181 -0.00828039 18.0742 0.00753527 17.9697L0.721398 13.2493C0.243176 12.0896 -0.00182477 10.847 0.000396628 9.59253C0.000396628 4.29478 4.29517 0 9.59293 0ZM5.97275 4.86319C5.31689 4.86319 4.77346 5.41643 4.87519 6.09996C5.06793 7.38134 5.63724 9.74244 7.33087 11.4486C9.10125 13.2323 11.6346 13.9953 13.0061 14.296C13.7164 14.4522 14.3223 13.89 14.3223 13.1966V11.569C14.3223 11.515 14.3059 11.4621 14.2753 11.4175C14.2448 11.3729 14.2014 11.3387 14.1509 11.3192L12.402 10.6473C12.3548 10.6292 12.3034 10.6249 12.2538 10.6348L10.4897 10.9792C9.352 10.3903 8.66312 9.72995 8.24997 8.735L8.58192 6.93696C8.59081 6.88912 8.58649 6.83976 8.56943 6.79419L7.91356 5.03719C7.89453 4.98624 7.86042 4.9423 7.81579 4.91121C7.77115 4.88013 7.71811 4.86338 7.66371 4.86319H5.97275Z" fill="white"/>
</svg>
