<svg width="20" height="14" viewBox="0 0 20 14" fill="none" xmlns="http://www.w3.org/2000/svg">
<path d="M19.6391 4.86469C19.6832 3.58746 19.4039 2.31979 18.8271 1.17938C18.4357 0.711437 17.8926 0.395652 17.2923 0.287047C14.8094 0.0617567 12.3162 -0.0305824 9.82348 0.0104253C7.33981 -0.0324436 4.85563 0.0569158 2.38146 0.278124C1.8923 0.367104 1.43962 0.596544 1.07866 0.938447C0.275565 1.67908 0.186332 2.94619 0.0970995 4.01698C-0.0323665 5.94224 -0.0323665 7.87401 0.0970995 9.79927C0.122915 10.402 0.212651 11.0002 0.364798 11.5839C0.472391 12.0346 0.690072 12.4516 0.998351 12.7975C1.36177 13.1575 1.82499 13.4 2.32792 13.4935C4.25171 13.731 6.19011 13.8294 8.12806 13.788C11.2512 13.8326 13.9907 13.788 17.2298 13.5381C17.7451 13.4504 18.2214 13.2076 18.5951 12.8421C18.8449 12.5922 19.0315 12.2863 19.1394 11.9498C19.4585 10.9706 19.6152 9.94571 19.6034 8.91586C19.6391 8.41616 19.6391 5.40009 19.6391 4.86469ZM7.80682 9.45126V3.92775L13.0894 6.70289C11.6081 7.52383 9.65394 8.45185 7.80682 9.45126Z" fill="white"/>
</svg>
